<svg width="1200" height="630" viewBox="0 0 1200 630" fill="none" xmlns="http://www.w3.org/2000/svg">
  <defs>
    <linearGradient id="bg" x1="0" y1="0" x2="1200" y2="630" gradientUnits="userSpaceOnUse">
      <stop stop-color="#07070A"/>
      <stop offset="1" stop-color="#141022"/>
    </linearGradient>
    <radialGradient id="glowLeft" cx="0" cy="0" r="1" gradientUnits="userSpaceOnUse" gradientTransform="translate(340 310) rotate(12) scale(420 280)">
      <stop stop-color="#A855F7" stop-opacity="0.42"/>
      <stop offset="1" stop-color="#A855F7" stop-opacity="0"/>
    </radialGradient>
    <radialGradient id="glowRight" cx="0" cy="0" r="1" gradientUnits="userSpaceOnUse" gradientTransform="translate(930 170) rotate(130) scale(260 190)">
      <stop stop-color="#7E22CE" stop-opacity="0.35"/>
      <stop offset="1" stop-color="#7E22CE" stop-opacity="0"/>
    </radialGradient>
    <filter id="softBlur" x="-20%" y="-20%" width="140%" height="140%">
      <feGaussianBlur stdDeviation="22"/>
    </filter>
  </defs>

  <rect width="1200" height="630" fill="url(#bg)"/>
  <rect width="1200" height="630" fill="url(#glowLeft)"/>
  <rect width="1200" height="630" fill="url(#glowRight)"/>

  <g opacity="0.16">
    <path d="M0 560L230 460L430 530L700 430L980 520L1200 440V630H0V560Z" fill="#A855F7"/>
    <path d="M0 590L260 510L450 580L710 500L990 590L1200 520V630H0V590Z" fill="#6B21A8"/>
  </g>

  <g transform="translate(120 140)">
    <circle cx="120" cy="120" r="108" stroke="#A855F7" stroke-opacity="0.9" stroke-width="16"/>
    <circle cx="120" cy="120" r="130" stroke="#A855F7" stroke-opacity="0.25" stroke-width="2"/>
    <g filter="url(#softBlur)" opacity="0.35">
      <circle cx="120" cy="120" r="118" fill="#A855F7"/>
    </g>
    <path d="M78 116C78 87 98 67 120 67C142 67 162 87 162 116V159C162 174 150 186 135 186H105C90 186 78 174 78 159V116Z" fill="#A855F7"/>
    <circle cx="105" cy="122" r="8.5" fill="#09090B"/>
    <circle cx="136" cy="122" r="8.5" fill="#09090B"/>
    <path d="M109 148C109 141 114 136 121 136C128 136 133 141 133 148" stroke="#09090B" stroke-width="6" stroke-linecap="round"/>
  </g>

  <text x="640" y="230" text-anchor="middle" fill="#D8B4FE" font-family="Inter, Segoe UI, Arial, sans-serif" font-size="28" font-weight="700" letter-spacing="2">
    MINECRAFT DARK EXPERIENCE
  </text>
  <text x="710" y="325" text-anchor="middle" fill="#FFFFFF" font-family="Inter, Segoe UI, Arial, sans-serif" font-size="84" font-weight="800">
    Nightmare Pack
  </text>
  <text x="640" y="388" text-anchor="middle" fill="#A1A1AA" font-family="Inter, Segoe UI, Arial, sans-serif" font-size="34" font-weight="500">
    Enter the darkest Minecraft world.
  </text>

  <rect x="370" y="430" width="540" height="62" rx="14" fill="#A855F7" fill-opacity="0.16" stroke="#A855F7" stroke-opacity="0.55"/>
  <text x="640" y="471" text-anchor="middle" fill="#F5F3FF" font-family="Inter, Segoe UI, Arial, sans-serif" font-size="28" font-weight="700">
    Mods | Packs | Cursed Survival
  </text>

  <rect x="38" y="38" width="1124" height="554" rx="18" stroke="#A855F7" stroke-opacity="0.22"/>
</svg>
